<mxfile host="app.diagrams.net" agent="Mozilla/5.0 (Windows NT 10.0; Win64; x64) AppleWebKit/537.36 (KHTML, like Gecko) Chrome/129.0.0.0 Safari/537.36" version="24.7.16">
  <diagram name="Page-1" id="leC-JpgwISt06q5IoQHh">
    <mxGraphModel dx="2333" dy="1160" grid="1" gridSize="10" guides="1" tooltips="1" connect="1" arrows="1" fold="1" page="1" pageScale="1" pageWidth="827" pageHeight="1169" math="0" shadow="0">
      <root>
        <mxCell id="0" />
        <mxCell id="1" parent="0" />
        <mxCell id="Beb7_Kvi-V1mNmwacQmj-577" value="Git" style="rounded=1;arcSize=40;strokeWidth=2;fillColor=#0050ef;strokeColor=#001DBC;fontStyle=1;fontSize=16;fontColor=#ffffff;" vertex="1" parent="1">
          <mxGeometry x="103" y="266" width="52" height="48" as="geometry" />
        </mxCell>
        <mxCell id="Beb7_Kvi-V1mNmwacQmj-578" value="Version Control" style="rounded=1;arcSize=40;strokeWidth=2;fillColor=#dae8fc;strokeColor=#6c8ebf;fontStyle=1;fontSize=16;" vertex="1" parent="1">
          <mxGeometry x="329" y="118" width="140" height="48" as="geometry" />
        </mxCell>
        <mxCell id="Beb7_Kvi-V1mNmwacQmj-579" value="Source Code Management" style="rounded=1;arcSize=40;strokeWidth=2;fillColor=#dae8fc;strokeColor=#6c8ebf;fontStyle=1;fontSize=16;" vertex="1" parent="1">
          <mxGeometry x="292" y="414" width="214" height="48" as="geometry" />
        </mxCell>
        <mxCell id="Beb7_Kvi-V1mNmwacQmj-580" value="Branching Strategies" style="rounded=1;arcSize=40;strokeWidth=2;fontStyle=1;fontSize=16;strokeColor=#b85450;fillColor=#f8cecc;" vertex="1" parent="1">
          <mxGeometry x="561" y="20" width="177" height="48" as="geometry" />
        </mxCell>
        <mxCell id="Beb7_Kvi-V1mNmwacQmj-581" value="Merging" style="rounded=1;arcSize=40;strokeWidth=2;fillColor=#f8cecc;strokeColor=#000000;fontStyle=1;fontSize=16;" vertex="1" parent="1">
          <mxGeometry x="606" y="118" width="86" height="48" as="geometry" />
        </mxCell>
        <mxCell id="Beb7_Kvi-V1mNmwacQmj-582" value="Pull Requests" style="rounded=1;arcSize=40;strokeWidth=2;fillColor=#f8cecc;strokeColor=#000000;fontStyle=1;fontSize=16;" vertex="1" parent="1">
          <mxGeometry x="587" y="217" width="125" height="48" as="geometry" />
        </mxCell>
        <mxCell id="Beb7_Kvi-V1mNmwacQmj-583" value="Repositories" style="rounded=1;arcSize=40;strokeWidth=2;fillColor=#f8cecc;strokeColor=#000000;fontStyle=1;fontSize=16;" vertex="1" parent="1">
          <mxGeometry x="591" y="315" width="117" height="48" as="geometry" />
        </mxCell>
        <mxCell id="Beb7_Kvi-V1mNmwacQmj-584" value="Commits" style="rounded=1;arcSize=40;strokeWidth=2;fillColor=#f8cecc;strokeColor=#000000;fontStyle=1;fontSize=16;" vertex="1" parent="1">
          <mxGeometry x="603" y="414" width="92" height="48" as="geometry" />
        </mxCell>
        <mxCell id="Beb7_Kvi-V1mNmwacQmj-585" value="Cloning" style="rounded=1;arcSize=40;strokeWidth=2;fillColor=#f8cecc;strokeColor=#000000;fontStyle=1;fontSize=16;" vertex="1" parent="1">
          <mxGeometry x="608" y="1004" width="83" height="48" as="geometry" />
        </mxCell>
        <mxCell id="Beb7_Kvi-V1mNmwacQmj-586" value="Learn a Programming Language" style="rounded=1;arcSize=40;strokeWidth=2;fontStyle=1;fontSize=16;strokeColor=#001DBC;fillColor=#0050ef;fontColor=#ffffff;" vertex="1" parent="1">
          <mxGeometry x="38" y="602" width="262" height="66" as="geometry" />
        </mxCell>
        <mxCell id="Beb7_Kvi-V1mNmwacQmj-587" value="Python" style="rounded=1;arcSize=40;strokeWidth=2;fillColor=#f8cecc;strokeColor=#000000;fontStyle=1;fontSize=16;" vertex="1" parent="1">
          <mxGeometry x="360" y="512" width="79" height="48" as="geometry" />
        </mxCell>
        <mxCell id="Beb7_Kvi-V1mNmwacQmj-588" value="Go" style="rounded=1;arcSize=40;strokeWidth=2;fillColor=#f8cecc;strokeColor=#000000;fontStyle=1;fontSize=16;" vertex="1" parent="1">
          <mxGeometry x="375" y="610" width="50" height="48" as="geometry" />
        </mxCell>
        <mxCell id="Beb7_Kvi-V1mNmwacQmj-589" value="JavaScript" style="rounded=1;arcSize=40;strokeWidth=2;fillColor=#f8cecc;strokeColor=#000000;fontStyle=1;fontSize=16;" vertex="1" parent="1">
          <mxGeometry x="347" y="709" width="104" height="48" as="geometry" />
        </mxCell>
        <mxCell id="Beb7_Kvi-V1mNmwacQmj-590" value="Learn Linux" style="rounded=1;arcSize=40;strokeWidth=2;fontStyle=1;fontSize=16;strokeColor=#001DBC;fillColor=#0050ef;fontColor=#ffffff;" vertex="1" parent="1">
          <mxGeometry x="72" y="1004" width="114" height="48" as="geometry" />
        </mxCell>
        <mxCell id="Beb7_Kvi-V1mNmwacQmj-591" value="Shell Commands" style="rounded=1;arcSize=40;strokeWidth=2;fillColor=#f8cecc;strokeColor=#000000;fontStyle=1;fontSize=16;" vertex="1" parent="1">
          <mxGeometry x="326" y="807" width="147" height="48" as="geometry" />
        </mxCell>
        <mxCell id="Beb7_Kvi-V1mNmwacQmj-592" value="File System" style="rounded=1;arcSize=40;strokeWidth=2;fillColor=#f8cecc;strokeColor=#000000;fontStyle=1;fontSize=16;" vertex="1" parent="1">
          <mxGeometry x="344" y="906" width="112" height="48" as="geometry" />
        </mxCell>
        <mxCell id="Beb7_Kvi-V1mNmwacQmj-593" value="Networking" style="rounded=1;arcSize=40;strokeWidth=2;fillColor=#f8cecc;strokeColor=#000000;fontStyle=1;fontSize=16;" vertex="1" parent="1">
          <mxGeometry x="344" y="1004" width="111" height="48" as="geometry" />
        </mxCell>
        <mxCell id="Beb7_Kvi-V1mNmwacQmj-594" value="Virtualization" style="rounded=1;arcSize=40;strokeWidth=2;fillColor=#f8cecc;strokeColor=#000000;fontStyle=1;fontSize=16;" vertex="1" parent="1">
          <mxGeometry x="336" y="1102" width="128" height="48" as="geometry" />
        </mxCell>
        <mxCell id="Beb7_Kvi-V1mNmwacQmj-595" value="POSIX" style="rounded=1;arcSize=40;strokeWidth=2;fontStyle=1;fontSize=16;strokeColor=#b85450;fillColor=#f8cecc;" vertex="1" parent="1">
          <mxGeometry x="364" y="1201" width="71" height="48" as="geometry" />
        </mxCell>
        <mxCell id="Beb7_Kvi-V1mNmwacQmj-596" value="Learn Networking &amp; Security" style="rounded=1;arcSize=40;strokeWidth=2;fontStyle=1;fontSize=16;strokeColor=#001DBC;fillColor=#0050ef;fontColor=#ffffff;" vertex="1" parent="1">
          <mxGeometry x="25" y="1438" width="255" height="66" as="geometry" />
        </mxCell>
        <mxCell id="Beb7_Kvi-V1mNmwacQmj-597" value="Network Protocols" style="rounded=1;arcSize=40;strokeWidth=2;fillColor=#f8cecc;strokeColor=#000000;fontStyle=1;fontSize=16;" vertex="1" parent="1">
          <mxGeometry x="319" y="1299" width="161" height="48" as="geometry" />
        </mxCell>
        <mxCell id="Beb7_Kvi-V1mNmwacQmj-598" value="Security Best Practices" style="rounded=1;arcSize=40;strokeWidth=2;fillColor=#f8cecc;strokeColor=#000000;fontStyle=1;fontSize=16;" vertex="1" parent="1">
          <mxGeometry x="303" y="1398" width="193" height="48" as="geometry" />
        </mxCell>
        <mxCell id="Beb7_Kvi-V1mNmwacQmj-599" value="Encryption" style="rounded=1;arcSize=40;strokeWidth=2;fillColor=#f8cecc;strokeColor=#000000;fontStyle=1;fontSize=16;" vertex="1" parent="1">
          <mxGeometry x="346" y="1496" width="107" height="48" as="geometry" />
        </mxCell>
        <mxCell id="Beb7_Kvi-V1mNmwacQmj-600" value="Firewall" style="rounded=1;arcSize=40;strokeWidth=2;fillColor=#f8cecc;strokeColor=#000000;fontStyle=1;fontSize=16;" vertex="1" parent="1">
          <mxGeometry x="356" y="1594" width="88" height="48" as="geometry" />
        </mxCell>
        <mxCell id="Beb7_Kvi-V1mNmwacQmj-601" value="DevOps Tools" style="rounded=1;arcSize=40;strokeWidth=2;fontStyle=1;fontSize=16;strokeColor=#001DBC;fillColor=#0050ef;fontColor=#ffffff;" vertex="1" parent="1">
          <mxGeometry x="68" y="2037" width="123" height="48" as="geometry" />
        </mxCell>
        <mxCell id="Beb7_Kvi-V1mNmwacQmj-602" value="CI/CD" style="rounded=1;arcSize=40;strokeWidth=2;fillColor=#f8cecc;strokeColor=#000000;fontStyle=1;fontSize=16;" vertex="1" parent="1">
          <mxGeometry x="363" y="1693" width="72" height="48" as="geometry" />
        </mxCell>
        <mxCell id="Beb7_Kvi-V1mNmwacQmj-603" value="Containerization" style="rounded=1;arcSize=40;strokeWidth=2;fillColor=#f8cecc;strokeColor=#000000;fontStyle=1;fontSize=16;" vertex="1" parent="1">
          <mxGeometry x="325" y="1939" width="149" height="48" as="geometry" />
        </mxCell>
        <mxCell id="Beb7_Kvi-V1mNmwacQmj-604" value="Infrastructure as Code" style="rounded=1;arcSize=40;strokeWidth=2;fontStyle=1;fontSize=16;strokeColor=#b85450;fillColor=#f8cecc;" vertex="1" parent="1">
          <mxGeometry x="304" y="2185" width="190" height="48" as="geometry" />
        </mxCell>
        <mxCell id="Beb7_Kvi-V1mNmwacQmj-605" value="Configuration Management" style="rounded=1;arcSize=40;strokeWidth=2;fontStyle=1;fontSize=16;strokeColor=#b85450;fillColor=#f8cecc;" vertex="1" parent="1">
          <mxGeometry x="288" y="2431" width="223" height="48" as="geometry" />
        </mxCell>
        <mxCell id="Beb7_Kvi-V1mNmwacQmj-606" value="Jenkins" style="rounded=1;arcSize=40;strokeWidth=2;fillColor=#f8cecc;strokeColor=#000000;fontStyle=1;fontSize=16;" vertex="1" parent="1">
          <mxGeometry x="608" y="1102" width="83" height="48" as="geometry" />
        </mxCell>
        <mxCell id="Beb7_Kvi-V1mNmwacQmj-607" value="GitLab CI" style="rounded=1;arcSize=40;strokeWidth=2;fillColor=#f8cecc;strokeColor=#000000;fontStyle=1;fontSize=16;" vertex="1" parent="1">
          <mxGeometry x="601" y="1693" width="96" height="48" as="geometry" />
        </mxCell>
        <mxCell id="Beb7_Kvi-V1mNmwacQmj-608" value="CircleCI" style="rounded=1;arcSize=40;strokeWidth=2;fillColor=#f8cecc;strokeColor=#000000;fontStyle=1;fontSize=16;" vertex="1" parent="1">
          <mxGeometry x="606" y="1791" width="86" height="48" as="geometry" />
        </mxCell>
        <mxCell id="Beb7_Kvi-V1mNmwacQmj-609" value="Docker" style="rounded=1;arcSize=40;strokeWidth=2;fillColor=#f8cecc;strokeColor=#000000;fontStyle=1;fontSize=16;" vertex="1" parent="1">
          <mxGeometry x="609" y="1890" width="80" height="48" as="geometry" />
        </mxCell>
        <mxCell id="Beb7_Kvi-V1mNmwacQmj-610" value="Kubernetes" style="rounded=1;arcSize=40;strokeWidth=2;fillColor=#f8cecc;strokeColor=#000000;fontStyle=1;fontSize=16;" vertex="1" parent="1">
          <mxGeometry x="594" y="1988" width="110" height="48" as="geometry" />
        </mxCell>
        <mxCell id="Beb7_Kvi-V1mNmwacQmj-611" value="Terraform" style="rounded=1;arcSize=40;strokeWidth=2;fillColor=#f8cecc;strokeColor=#000000;fontStyle=1;fontSize=16;" vertex="1" parent="1">
          <mxGeometry x="598" y="2086" width="102" height="48" as="geometry" />
        </mxCell>
        <mxCell id="Beb7_Kvi-V1mNmwacQmj-612" value="Ansible" style="rounded=1;arcSize=40;strokeWidth=2;fillColor=#f8cecc;strokeColor=#000000;fontStyle=1;fontSize=16;" vertex="1" parent="1">
          <mxGeometry x="608" y="2185" width="82" height="48" as="geometry" />
        </mxCell>
        <mxCell id="Beb7_Kvi-V1mNmwacQmj-613" value="Puppet" style="rounded=1;arcSize=40;strokeWidth=2;fillColor=#f8cecc;strokeColor=#000000;fontStyle=1;fontSize=16;" vertex="1" parent="1">
          <mxGeometry x="609" y="2283" width="81" height="48" as="geometry" />
        </mxCell>
        <mxCell id="Beb7_Kvi-V1mNmwacQmj-614" value="Chef" style="rounded=1;arcSize=40;strokeWidth=2;fillColor=#f8cecc;strokeColor=#000000;fontStyle=1;fontSize=16;" vertex="1" parent="1">
          <mxGeometry x="617" y="2382" width="63" height="48" as="geometry" />
        </mxCell>
        <mxCell id="Beb7_Kvi-V1mNmwacQmj-615" value="SaltStack" style="rounded=1;arcSize=40;strokeWidth=2;fillColor=#f8cecc;strokeColor=#000000;fontStyle=1;fontSize=16;" vertex="1" parent="1">
          <mxGeometry x="601" y="2480" width="96" height="48" as="geometry" />
        </mxCell>
        <mxCell id="Beb7_Kvi-V1mNmwacQmj-616" value="Cloud Platforms" style="rounded=1;arcSize=40;strokeWidth=2;fontStyle=1;fontSize=16;strokeColor=#001DBC;fillColor=#0050ef;fontColor=#ffffff;" vertex="1" parent="1">
          <mxGeometry x="57" y="2628" width="144" height="48" as="geometry" />
        </mxCell>
        <mxCell id="Beb7_Kvi-V1mNmwacQmj-617" value="AWS" style="rounded=1;arcSize=40;strokeWidth=2;fillColor=#f8cecc;strokeColor=#000000;fontStyle=1;fontSize=16;" vertex="1" parent="1">
          <mxGeometry x="369" y="2529" width="60" height="48" as="geometry" />
        </mxCell>
        <mxCell id="Beb7_Kvi-V1mNmwacQmj-618" value="GCP" style="rounded=1;arcSize=40;strokeWidth=2;fillColor=#f8cecc;strokeColor=#000000;fontStyle=1;fontSize=16;" vertex="1" parent="1">
          <mxGeometry x="370" y="2628" width="59" height="48" as="geometry" />
        </mxCell>
        <mxCell id="Beb7_Kvi-V1mNmwacQmj-619" value="Azure" style="rounded=1;arcSize=40;strokeWidth=2;fillColor=#f8cecc;strokeColor=#000000;fontStyle=1;fontSize=16;" vertex="1" parent="1">
          <mxGeometry x="364" y="2726" width="72" height="48" as="geometry" />
        </mxCell>
        <mxCell id="Beb7_Kvi-V1mNmwacQmj-620" value="Monitoring &amp; Logging" style="rounded=1;arcSize=40;strokeWidth=2;fontStyle=1;fontSize=16;strokeColor=#001DBC;fillColor=#0050ef;fontColor=#ffffff;" vertex="1" parent="1">
          <mxGeometry x="20" y="2923" width="218" height="48" as="geometry" />
        </mxCell>
        <mxCell id="Beb7_Kvi-V1mNmwacQmj-621" value="Prometheus" style="rounded=1;arcSize=40;strokeWidth=2;fillColor=#f8cecc;strokeColor=#000000;fontStyle=1;fontSize=16;" vertex="1" parent="1">
          <mxGeometry x="342" y="2824" width="114" height="48" as="geometry" />
        </mxCell>
        <mxCell id="Beb7_Kvi-V1mNmwacQmj-622" value="Grafana" style="rounded=1;arcSize=40;strokeWidth=2;fillColor=#f8cecc;strokeColor=#000000;fontStyle=1;fontSize=16;" vertex="1" parent="1">
          <mxGeometry x="356" y="2923" width="87" height="48" as="geometry" />
        </mxCell>
        <mxCell id="Beb7_Kvi-V1mNmwacQmj-623" value="ELK Stack" style="rounded=1;arcSize=40;strokeWidth=2;fillColor=#f8cecc;strokeColor=#000000;fontStyle=1;fontSize=16;" vertex="1" parent="1">
          <mxGeometry x="349" y="3021" width="100" height="48" as="geometry" />
        </mxCell>
        <mxCell id="Beb7_Kvi-V1mNmwacQmj-624" value="DevOps Culture" style="rounded=1;arcSize=40;strokeWidth=2;fontStyle=1;fontSize=16;strokeColor=#001DBC;fillColor=#0050ef;fontColor=#ffffff;" vertex="1" parent="1">
          <mxGeometry x="59" y="3218" width="141" height="48" as="geometry" />
        </mxCell>
        <mxCell id="Beb7_Kvi-V1mNmwacQmj-625" value="Collaboration" style="rounded=1;arcSize=40;strokeWidth=2;fillColor=#f8cecc;strokeColor=#000000;fontStyle=1;fontSize=16;" vertex="1" parent="1">
          <mxGeometry x="336" y="3120" width="126" height="48" as="geometry" />
        </mxCell>
        <mxCell id="Beb7_Kvi-V1mNmwacQmj-626" value="Automation" style="rounded=1;arcSize=40;strokeWidth=2;fillColor=#f8cecc;strokeColor=#000000;fontStyle=1;fontSize=16;" vertex="1" parent="1">
          <mxGeometry x="342" y="3218" width="114" height="48" as="geometry" />
        </mxCell>
        <mxCell id="Beb7_Kvi-V1mNmwacQmj-627" value="Continuous Improvement" style="rounded=1;arcSize=40;strokeWidth=2;fillColor=#f8cecc;strokeColor=#000000;fontStyle=1;fontSize=16;" vertex="1" parent="1">
          <mxGeometry x="295" y="3316" width="209" height="48" as="geometry" />
        </mxCell>
        <mxCell id="Beb7_Kvi-V1mNmwacQmj-628" value="" style="curved=1;startArrow=none;endArrow=block;exitX=0.92;exitY=0;entryX=0;entryY=0.51;rounded=0;fillColor=#f8cecc;strokeColor=#000000;fontStyle=1;fontSize=16;strokeWidth=2;" edge="1" parent="1" source="Beb7_Kvi-V1mNmwacQmj-577" target="Beb7_Kvi-V1mNmwacQmj-578">
          <mxGeometry relative="1" as="geometry">
            <Array as="points">
              <mxPoint x="263" y="143" />
            </Array>
          </mxGeometry>
        </mxCell>
        <mxCell id="Beb7_Kvi-V1mNmwacQmj-629" value="" style="curved=1;startArrow=none;endArrow=block;exitX=0.92;exitY=1.01;entryX=0;entryY=0.5;rounded=0;fillColor=#f8cecc;strokeColor=#000000;fontStyle=1;fontSize=16;strokeWidth=2;" edge="1" parent="1" source="Beb7_Kvi-V1mNmwacQmj-577" target="Beb7_Kvi-V1mNmwacQmj-579">
          <mxGeometry relative="1" as="geometry">
            <Array as="points">
              <mxPoint x="263" y="438" />
            </Array>
          </mxGeometry>
        </mxCell>
        <mxCell id="Beb7_Kvi-V1mNmwacQmj-630" value="" style="curved=1;startArrow=none;endArrow=block;exitX=0.74;exitY=0.01;entryX=0;entryY=0.5;rounded=0;fillColor=#f8cecc;strokeColor=#000000;fontStyle=1;fontSize=16;strokeWidth=2;" edge="1" parent="1" source="Beb7_Kvi-V1mNmwacQmj-578" target="Beb7_Kvi-V1mNmwacQmj-580">
          <mxGeometry relative="1" as="geometry">
            <Array as="points">
              <mxPoint x="536" y="44" />
            </Array>
          </mxGeometry>
        </mxCell>
        <mxCell id="Beb7_Kvi-V1mNmwacQmj-631" value="" style="curved=1;startArrow=none;endArrow=block;exitX=1;exitY=0.51;entryX=0;entryY=0.51;rounded=0;fillColor=#f8cecc;strokeColor=#000000;fontStyle=1;fontSize=16;strokeWidth=2;" edge="1" parent="1" source="Beb7_Kvi-V1mNmwacQmj-578" target="Beb7_Kvi-V1mNmwacQmj-581">
          <mxGeometry relative="1" as="geometry">
            <Array as="points" />
          </mxGeometry>
        </mxCell>
        <mxCell id="Beb7_Kvi-V1mNmwacQmj-632" value="" style="curved=1;startArrow=none;endArrow=block;exitX=0.74;exitY=1.02;entryX=0;entryY=0.5;rounded=0;fillColor=#f8cecc;strokeColor=#000000;fontStyle=1;fontSize=16;strokeWidth=2;" edge="1" parent="1" source="Beb7_Kvi-V1mNmwacQmj-578" target="Beb7_Kvi-V1mNmwacQmj-582">
          <mxGeometry relative="1" as="geometry">
            <Array as="points">
              <mxPoint x="536" y="241" />
            </Array>
          </mxGeometry>
        </mxCell>
        <mxCell id="Beb7_Kvi-V1mNmwacQmj-633" value="" style="curved=1;startArrow=none;endArrow=block;exitX=0.66;exitY=-0.01;entryX=0;entryY=0.51;rounded=0;fillColor=#f8cecc;strokeColor=#000000;fontStyle=1;fontSize=16;strokeWidth=2;" edge="1" parent="1" source="Beb7_Kvi-V1mNmwacQmj-579" target="Beb7_Kvi-V1mNmwacQmj-583">
          <mxGeometry relative="1" as="geometry">
            <Array as="points">
              <mxPoint x="536" y="339" />
            </Array>
          </mxGeometry>
        </mxCell>
        <mxCell id="Beb7_Kvi-V1mNmwacQmj-634" value="" style="curved=1;startArrow=none;endArrow=block;exitX=1;exitY=0.5;entryX=0;entryY=0.5;rounded=0;fillColor=#f8cecc;strokeColor=#000000;fontStyle=1;fontSize=16;strokeWidth=2;" edge="1" parent="1" source="Beb7_Kvi-V1mNmwacQmj-579" target="Beb7_Kvi-V1mNmwacQmj-584">
          <mxGeometry relative="1" as="geometry">
            <Array as="points" />
          </mxGeometry>
        </mxCell>
        <mxCell id="Beb7_Kvi-V1mNmwacQmj-635" value="" style="curved=1;startArrow=none;endArrow=block;exitX=0.53;exitY=1;entryX=0;entryY=0.5;rounded=0;fillColor=#f8cecc;strokeColor=#000000;fontStyle=1;fontSize=16;strokeWidth=2;" edge="1" parent="1" source="Beb7_Kvi-V1mNmwacQmj-579" target="Beb7_Kvi-V1mNmwacQmj-585">
          <mxGeometry relative="1" as="geometry">
            <Array as="points">
              <mxPoint x="536" y="1028" />
            </Array>
          </mxGeometry>
        </mxCell>
        <mxCell id="Beb7_Kvi-V1mNmwacQmj-636" value="" style="curved=1;startArrow=none;endArrow=block;exitX=0.75;exitY=-0.01;entryX=0;entryY=0.5;rounded=0;fillColor=#f8cecc;strokeColor=#000000;fontStyle=1;fontSize=16;strokeWidth=2;" edge="1" parent="1" source="Beb7_Kvi-V1mNmwacQmj-586" target="Beb7_Kvi-V1mNmwacQmj-587">
          <mxGeometry relative="1" as="geometry">
            <Array as="points">
              <mxPoint x="263" y="536" />
            </Array>
          </mxGeometry>
        </mxCell>
        <mxCell id="Beb7_Kvi-V1mNmwacQmj-637" value="" style="curved=1;startArrow=none;endArrow=block;exitX=1;exitY=0.49;entryX=-0.01;entryY=0.51;rounded=0;fillColor=#f8cecc;strokeColor=#000000;fontStyle=1;fontSize=16;strokeWidth=2;" edge="1" parent="1" source="Beb7_Kvi-V1mNmwacQmj-586" target="Beb7_Kvi-V1mNmwacQmj-588">
          <mxGeometry relative="1" as="geometry">
            <Array as="points" />
          </mxGeometry>
        </mxCell>
        <mxCell id="Beb7_Kvi-V1mNmwacQmj-638" value="" style="curved=1;startArrow=none;endArrow=block;exitX=0.75;exitY=0.99;entryX=0;entryY=0.5;rounded=0;fillColor=#f8cecc;strokeColor=#000000;fontStyle=1;fontSize=16;strokeWidth=2;" edge="1" parent="1" source="Beb7_Kvi-V1mNmwacQmj-586" target="Beb7_Kvi-V1mNmwacQmj-589">
          <mxGeometry relative="1" as="geometry">
            <Array as="points">
              <mxPoint x="263" y="733" />
            </Array>
          </mxGeometry>
        </mxCell>
        <mxCell id="Beb7_Kvi-V1mNmwacQmj-639" value="" style="curved=1;startArrow=none;endArrow=block;exitX=0.64;exitY=0;entryX=0;entryY=0.51;rounded=0;fillColor=#f8cecc;strokeColor=#000000;fontStyle=1;fontSize=16;strokeWidth=2;" edge="1" parent="1" source="Beb7_Kvi-V1mNmwacQmj-590" target="Beb7_Kvi-V1mNmwacQmj-591">
          <mxGeometry relative="1" as="geometry">
            <Array as="points">
              <mxPoint x="263" y="831" />
            </Array>
          </mxGeometry>
        </mxCell>
        <mxCell id="Beb7_Kvi-V1mNmwacQmj-640" value="" style="curved=1;startArrow=none;endArrow=block;exitX=0.79;exitY=0;entryX=0;entryY=0.5;rounded=0;fillColor=#f8cecc;strokeColor=#000000;fontStyle=1;fontSize=16;strokeWidth=2;" edge="1" parent="1" source="Beb7_Kvi-V1mNmwacQmj-590" target="Beb7_Kvi-V1mNmwacQmj-592">
          <mxGeometry relative="1" as="geometry">
            <Array as="points">
              <mxPoint x="263" y="930" />
            </Array>
          </mxGeometry>
        </mxCell>
        <mxCell id="Beb7_Kvi-V1mNmwacQmj-641" value="" style="curved=1;startArrow=none;endArrow=block;exitX=1;exitY=0.5;entryX=0;entryY=0.5;rounded=0;fillColor=#f8cecc;strokeColor=#000000;fontStyle=1;fontSize=16;strokeWidth=2;" edge="1" parent="1" source="Beb7_Kvi-V1mNmwacQmj-590" target="Beb7_Kvi-V1mNmwacQmj-593">
          <mxGeometry relative="1" as="geometry">
            <Array as="points" />
          </mxGeometry>
        </mxCell>
        <mxCell id="Beb7_Kvi-V1mNmwacQmj-642" value="" style="curved=1;startArrow=none;endArrow=block;exitX=0.79;exitY=1.01;entryX=0;entryY=0.51;rounded=0;fillColor=#f8cecc;strokeColor=#000000;fontStyle=1;fontSize=16;strokeWidth=2;" edge="1" parent="1" source="Beb7_Kvi-V1mNmwacQmj-590" target="Beb7_Kvi-V1mNmwacQmj-594">
          <mxGeometry relative="1" as="geometry">
            <Array as="points">
              <mxPoint x="263" y="1127" />
            </Array>
          </mxGeometry>
        </mxCell>
        <mxCell id="Beb7_Kvi-V1mNmwacQmj-643" value="" style="curved=1;startArrow=none;endArrow=block;exitX=0.64;exitY=1.01;entryX=0;entryY=0.5;rounded=0;fontStyle=1;fontSize=16;strokeWidth=2;strokeColor=#000000;" edge="1" parent="1" source="Beb7_Kvi-V1mNmwacQmj-590" target="Beb7_Kvi-V1mNmwacQmj-595">
          <mxGeometry relative="1" as="geometry">
            <Array as="points">
              <mxPoint x="263" y="1225" />
            </Array>
          </mxGeometry>
        </mxCell>
        <mxCell id="Beb7_Kvi-V1mNmwacQmj-644" value="" style="curved=1;startArrow=none;endArrow=block;exitX=0.64;exitY=0;entryX=0;entryY=0.51;rounded=0;fontStyle=1;fontSize=16;strokeWidth=2;strokeColor=#000000;" edge="1" parent="1" source="Beb7_Kvi-V1mNmwacQmj-596" target="Beb7_Kvi-V1mNmwacQmj-597">
          <mxGeometry relative="1" as="geometry">
            <Array as="points">
              <mxPoint x="263" y="1323" />
            </Array>
          </mxGeometry>
        </mxCell>
        <mxCell id="Beb7_Kvi-V1mNmwacQmj-645" value="" style="curved=1;startArrow=none;endArrow=block;exitX=0.93;exitY=0;entryX=0;entryY=0.5;rounded=0;fontStyle=1;fontSize=16;strokeWidth=2;strokeColor=#000000;" edge="1" parent="1" source="Beb7_Kvi-V1mNmwacQmj-596" target="Beb7_Kvi-V1mNmwacQmj-598">
          <mxGeometry relative="1" as="geometry">
            <Array as="points">
              <mxPoint x="263" y="1422" />
            </Array>
          </mxGeometry>
        </mxCell>
        <mxCell id="Beb7_Kvi-V1mNmwacQmj-646" value="" style="curved=1;startArrow=none;endArrow=block;exitX=0.93;exitY=1;entryX=0;entryY=0.5;rounded=0;fontStyle=1;fontSize=16;strokeWidth=2;strokeColor=#000000;" edge="1" parent="1" source="Beb7_Kvi-V1mNmwacQmj-596" target="Beb7_Kvi-V1mNmwacQmj-599">
          <mxGeometry relative="1" as="geometry">
            <Array as="points">
              <mxPoint x="263" y="1520" />
            </Array>
          </mxGeometry>
        </mxCell>
        <mxCell id="Beb7_Kvi-V1mNmwacQmj-647" value="" style="curved=1;startArrow=none;endArrow=block;exitX=0.64;exitY=1;entryX=-0.01;entryY=0.51;rounded=0;fontStyle=1;fontSize=16;strokeWidth=2;strokeColor=#000000;" edge="1" parent="1" source="Beb7_Kvi-V1mNmwacQmj-596" target="Beb7_Kvi-V1mNmwacQmj-600">
          <mxGeometry relative="1" as="geometry">
            <Array as="points">
              <mxPoint x="263" y="1619" />
            </Array>
          </mxGeometry>
        </mxCell>
        <mxCell id="Beb7_Kvi-V1mNmwacQmj-648" value="" style="curved=1;startArrow=none;endArrow=block;exitX=0.57;exitY=0;entryX=0.01;entryY=0.5;rounded=0;fontStyle=1;fontSize=16;strokeWidth=2;strokeColor=#000000;" edge="1" parent="1" source="Beb7_Kvi-V1mNmwacQmj-601" target="Beb7_Kvi-V1mNmwacQmj-602">
          <mxGeometry relative="1" as="geometry">
            <Array as="points">
              <mxPoint x="263" y="1717" />
            </Array>
          </mxGeometry>
        </mxCell>
        <mxCell id="Beb7_Kvi-V1mNmwacQmj-649" value="" style="curved=1;startArrow=none;endArrow=block;exitX=0.76;exitY=0;entryX=0;entryY=0.5;rounded=0;fontStyle=1;fontSize=16;strokeWidth=2;strokeColor=#000000;" edge="1" parent="1" source="Beb7_Kvi-V1mNmwacQmj-601" target="Beb7_Kvi-V1mNmwacQmj-603">
          <mxGeometry relative="1" as="geometry">
            <Array as="points">
              <mxPoint x="263" y="1963" />
            </Array>
          </mxGeometry>
        </mxCell>
        <mxCell id="Beb7_Kvi-V1mNmwacQmj-650" value="" style="curved=1;startArrow=none;endArrow=block;exitX=0.67;exitY=1.01;entryX=0;entryY=0.5;rounded=0;fontStyle=1;fontSize=16;strokeWidth=2;strokeColor=#000000;" edge="1" parent="1" source="Beb7_Kvi-V1mNmwacQmj-601" target="Beb7_Kvi-V1mNmwacQmj-604">
          <mxGeometry relative="1" as="geometry">
            <Array as="points">
              <mxPoint x="263" y="2209" />
            </Array>
          </mxGeometry>
        </mxCell>
        <mxCell id="Beb7_Kvi-V1mNmwacQmj-651" value="" style="curved=1;startArrow=none;endArrow=block;exitX=0.56;exitY=1.01;entryX=0;entryY=0.5;rounded=0;fontStyle=1;fontSize=16;strokeWidth=2;strokeColor=#000000;" edge="1" parent="1" source="Beb7_Kvi-V1mNmwacQmj-601" target="Beb7_Kvi-V1mNmwacQmj-605">
          <mxGeometry relative="1" as="geometry">
            <Array as="points">
              <mxPoint x="263" y="2455" />
            </Array>
          </mxGeometry>
        </mxCell>
        <mxCell id="Beb7_Kvi-V1mNmwacQmj-652" value="" style="curved=1;startArrow=none;endArrow=block;exitX=0.58;exitY=0;entryX=0;entryY=0.51;rounded=0;fontStyle=1;fontSize=16;strokeWidth=2;strokeColor=#000000;" edge="1" parent="1" source="Beb7_Kvi-V1mNmwacQmj-602" target="Beb7_Kvi-V1mNmwacQmj-606">
          <mxGeometry relative="1" as="geometry">
            <Array as="points">
              <mxPoint x="536" y="1127" />
            </Array>
          </mxGeometry>
        </mxCell>
        <mxCell id="Beb7_Kvi-V1mNmwacQmj-653" value="" style="curved=1;startArrow=none;endArrow=block;exitX=1;exitY=0.5;entryX=0;entryY=0.5;rounded=0;fillColor=#f8cecc;strokeColor=#000000;fontStyle=1;fontSize=16;strokeWidth=2;" edge="1" parent="1" source="Beb7_Kvi-V1mNmwacQmj-602" target="Beb7_Kvi-V1mNmwacQmj-607">
          <mxGeometry relative="1" as="geometry">
            <Array as="points" />
          </mxGeometry>
        </mxCell>
        <mxCell id="Beb7_Kvi-V1mNmwacQmj-654" value="" style="curved=1;startArrow=none;endArrow=block;exitX=0.97;exitY=1;entryX=0;entryY=0.51;rounded=0;fillColor=#f8cecc;strokeColor=#000000;fontStyle=1;fontSize=16;strokeWidth=2;" edge="1" parent="1" source="Beb7_Kvi-V1mNmwacQmj-602" target="Beb7_Kvi-V1mNmwacQmj-608">
          <mxGeometry relative="1" as="geometry">
            <Array as="points">
              <mxPoint x="536" y="1815" />
            </Array>
          </mxGeometry>
        </mxCell>
        <mxCell id="Beb7_Kvi-V1mNmwacQmj-655" value="" style="curved=1;startArrow=none;endArrow=block;exitX=0.95;exitY=0;entryX=0;entryY=0.5;rounded=0;fillColor=#f8cecc;strokeColor=#000000;fontStyle=1;fontSize=16;strokeWidth=2;" edge="1" parent="1" source="Beb7_Kvi-V1mNmwacQmj-603" target="Beb7_Kvi-V1mNmwacQmj-609">
          <mxGeometry relative="1" as="geometry">
            <Array as="points">
              <mxPoint x="536" y="1914" />
            </Array>
          </mxGeometry>
        </mxCell>
        <mxCell id="Beb7_Kvi-V1mNmwacQmj-656" value="" style="curved=1;startArrow=none;endArrow=block;exitX=0.95;exitY=1;entryX=0;entryY=0.5;rounded=0;fillColor=#f8cecc;strokeColor=#000000;fontStyle=1;fontSize=16;strokeWidth=2;" edge="1" parent="1" source="Beb7_Kvi-V1mNmwacQmj-603" target="Beb7_Kvi-V1mNmwacQmj-610">
          <mxGeometry relative="1" as="geometry">
            <Array as="points">
              <mxPoint x="536" y="2012" />
            </Array>
          </mxGeometry>
        </mxCell>
        <mxCell id="Beb7_Kvi-V1mNmwacQmj-657" value="" style="curved=1;startArrow=none;endArrow=block;exitX=0.68;exitY=0;entryX=0;entryY=0.51;rounded=0;fontStyle=1;fontSize=16;strokeWidth=2;strokeColor=#000000;" edge="1" parent="1" source="Beb7_Kvi-V1mNmwacQmj-604" target="Beb7_Kvi-V1mNmwacQmj-611">
          <mxGeometry relative="1" as="geometry">
            <Array as="points">
              <mxPoint x="536" y="2111" />
            </Array>
          </mxGeometry>
        </mxCell>
        <mxCell id="Beb7_Kvi-V1mNmwacQmj-658" value="" style="curved=1;startArrow=none;endArrow=block;exitX=1;exitY=0.5;entryX=0;entryY=0.5;rounded=0;fontStyle=1;fontSize=16;strokeWidth=2;strokeColor=#000000;" edge="1" parent="1" source="Beb7_Kvi-V1mNmwacQmj-604" target="Beb7_Kvi-V1mNmwacQmj-612">
          <mxGeometry relative="1" as="geometry">
            <Array as="points" />
          </mxGeometry>
        </mxCell>
        <mxCell id="Beb7_Kvi-V1mNmwacQmj-659" value="" style="curved=1;startArrow=none;endArrow=block;exitX=0.68;exitY=1;entryX=0;entryY=0.51;rounded=0;fontStyle=1;fontSize=16;strokeWidth=2;strokeColor=#000000;" edge="1" parent="1" source="Beb7_Kvi-V1mNmwacQmj-604" target="Beb7_Kvi-V1mNmwacQmj-613">
          <mxGeometry relative="1" as="geometry">
            <Array as="points">
              <mxPoint x="536" y="2307" />
            </Array>
          </mxGeometry>
        </mxCell>
        <mxCell id="Beb7_Kvi-V1mNmwacQmj-660" value="" style="curved=1;startArrow=none;endArrow=block;exitX=0.8;exitY=0;entryX=0.01;entryY=0.5;rounded=0;fontStyle=1;fontSize=16;strokeWidth=2;strokeColor=#000000;" edge="1" parent="1" source="Beb7_Kvi-V1mNmwacQmj-605" target="Beb7_Kvi-V1mNmwacQmj-614">
          <mxGeometry relative="1" as="geometry">
            <Array as="points">
              <mxPoint x="536" y="2406" />
            </Array>
          </mxGeometry>
        </mxCell>
        <mxCell id="Beb7_Kvi-V1mNmwacQmj-661" value="" style="curved=1;startArrow=none;endArrow=block;exitX=0.8;exitY=1;entryX=0;entryY=0.5;rounded=0;fontStyle=1;fontSize=16;strokeWidth=2;strokeColor=#000000;" edge="1" parent="1" source="Beb7_Kvi-V1mNmwacQmj-605" target="Beb7_Kvi-V1mNmwacQmj-615">
          <mxGeometry relative="1" as="geometry">
            <Array as="points">
              <mxPoint x="536" y="2504" />
            </Array>
          </mxGeometry>
        </mxCell>
        <mxCell id="Beb7_Kvi-V1mNmwacQmj-662" value="" style="curved=1;startArrow=none;endArrow=block;exitX=0.73;exitY=-0.01;entryX=0;entryY=0.51;rounded=0;fontStyle=1;fontSize=16;strokeWidth=2;strokeColor=#000000;" edge="1" parent="1" source="Beb7_Kvi-V1mNmwacQmj-616" target="Beb7_Kvi-V1mNmwacQmj-617">
          <mxGeometry relative="1" as="geometry">
            <Array as="points">
              <mxPoint x="263" y="2553" />
            </Array>
          </mxGeometry>
        </mxCell>
        <mxCell id="Beb7_Kvi-V1mNmwacQmj-663" value="" style="curved=1;startArrow=none;endArrow=block;exitX=1;exitY=0.5;entryX=0;entryY=0.5;rounded=0;fontStyle=1;fontSize=16;strokeWidth=2;strokeColor=#000000;" edge="1" parent="1" source="Beb7_Kvi-V1mNmwacQmj-616" target="Beb7_Kvi-V1mNmwacQmj-618">
          <mxGeometry relative="1" as="geometry">
            <Array as="points" />
          </mxGeometry>
        </mxCell>
        <mxCell id="Beb7_Kvi-V1mNmwacQmj-664" value="" style="curved=1;startArrow=none;endArrow=block;exitX=0.73;exitY=1;entryX=-0.01;entryY=0.5;rounded=0;fontStyle=1;fontSize=16;strokeWidth=2;strokeColor=#000000;" edge="1" parent="1" source="Beb7_Kvi-V1mNmwacQmj-616" target="Beb7_Kvi-V1mNmwacQmj-619">
          <mxGeometry relative="1" as="geometry">
            <Array as="points">
              <mxPoint x="263" y="2750" />
            </Array>
          </mxGeometry>
        </mxCell>
        <mxCell id="Beb7_Kvi-V1mNmwacQmj-665" value="" style="curved=1;startArrow=none;endArrow=block;exitX=0.65;exitY=0;entryX=0;entryY=0.51;rounded=0;fontStyle=1;fontSize=16;strokeWidth=2;strokeColor=#000000;" edge="1" parent="1" source="Beb7_Kvi-V1mNmwacQmj-620" target="Beb7_Kvi-V1mNmwacQmj-621">
          <mxGeometry relative="1" as="geometry">
            <Array as="points">
              <mxPoint x="263" y="2849" />
            </Array>
          </mxGeometry>
        </mxCell>
        <mxCell id="Beb7_Kvi-V1mNmwacQmj-666" value="" style="curved=1;startArrow=none;endArrow=block;exitX=1;exitY=0.5;entryX=0;entryY=0.5;rounded=0;fontStyle=1;fontSize=16;strokeWidth=2;strokeColor=#000000;" edge="1" parent="1" source="Beb7_Kvi-V1mNmwacQmj-620" target="Beb7_Kvi-V1mNmwacQmj-622">
          <mxGeometry relative="1" as="geometry">
            <Array as="points" />
          </mxGeometry>
        </mxCell>
        <mxCell id="Beb7_Kvi-V1mNmwacQmj-667" value="" style="curved=1;startArrow=none;endArrow=block;exitX=0.65;exitY=1;entryX=0;entryY=0.51;rounded=0;fontStyle=1;fontSize=16;strokeWidth=2;strokeColor=#000000;" edge="1" parent="1" source="Beb7_Kvi-V1mNmwacQmj-620" target="Beb7_Kvi-V1mNmwacQmj-623">
          <mxGeometry relative="1" as="geometry">
            <Array as="points">
              <mxPoint x="263" y="3045" />
            </Array>
          </mxGeometry>
        </mxCell>
        <mxCell id="Beb7_Kvi-V1mNmwacQmj-668" value="" style="curved=1;startArrow=none;endArrow=block;exitX=0.73;exitY=0;entryX=0;entryY=0.5;rounded=0;fontStyle=1;fontSize=16;strokeWidth=2;strokeColor=#000000;" edge="1" parent="1" source="Beb7_Kvi-V1mNmwacQmj-624" target="Beb7_Kvi-V1mNmwacQmj-625">
          <mxGeometry relative="1" as="geometry">
            <Array as="points">
              <mxPoint x="263" y="3144" />
            </Array>
          </mxGeometry>
        </mxCell>
        <mxCell id="Beb7_Kvi-V1mNmwacQmj-669" value="" style="curved=1;startArrow=none;endArrow=block;exitX=0.99;exitY=0.5;entryX=0;entryY=0.5;rounded=0;fontStyle=1;fontSize=16;strokeWidth=2;strokeColor=#000000;" edge="1" parent="1" source="Beb7_Kvi-V1mNmwacQmj-624" target="Beb7_Kvi-V1mNmwacQmj-626">
          <mxGeometry relative="1" as="geometry">
            <Array as="points" />
          </mxGeometry>
        </mxCell>
        <mxCell id="Beb7_Kvi-V1mNmwacQmj-670" value="" style="curved=1;startArrow=none;endArrow=block;exitX=0.73;exitY=1.01;entryX=0;entryY=0.51;rounded=0;fontStyle=1;fontSize=16;strokeWidth=2;strokeColor=#000000;" edge="1" parent="1" source="Beb7_Kvi-V1mNmwacQmj-624" target="Beb7_Kvi-V1mNmwacQmj-627">
          <mxGeometry relative="1" as="geometry">
            <Array as="points">
              <mxPoint x="263" y="3341" />
            </Array>
          </mxGeometry>
        </mxCell>
      </root>
    </mxGraphModel>
  </diagram>
</mxfile>
